<?xml version="1.0" encoding="utf-8"?>
<!-- Generator: Adobe Illustrator 19.0.0, SVG Export Plug-In . SVG Version: 6.00 Build 0)  -->
<svg version="1.1" id="Layer_1" xmlns="http://www.w3.org/2000/svg" xmlns:xlink="http://www.w3.org/1999/xlink" x="0px" y="0px"
	 viewBox="0 0 239 223" style="enable-background:new 0 0 239 223;" xml:space="preserve">
<style type="text/css">
	.st0{fill:#020202;}
</style>
<g id="XMLID_17_">
	<rect id="XMLID_236_" x="41" y="122.4" class="st0" width="21.2" height="73.1"/>
	<ellipse id="XMLID_235_" class="st0" cx="90.5" cy="134.9" rx="12.7" ry="12.5"/>
	<rect id="XMLID_234_" x="122.7" y="122.4" class="st0" width="21.2" height="73.1"/>
	<path id="XMLID_233_" class="st0" d="M197.5,128.2c-4.6-5.7-7.7-5.8-26.4-5.8c-11.1,0-11.1,0-11.1,0c8.3,0.7,15.9,5.2,15.9,28.8
		l-0.1,44.3h25.1l0-49.5C201,146,201.5,133.1,197.5,128.2z"/>
	<path id="XMLID_230_" class="st0" d="M191.5,67.7c2.5,10.7-1.7,21.8-11.2,29.5c-13,10.4-31.5,8.9-41.3-3.3l43.1-34.4l9.6-7.7
		c-4.8-7-12-12.6-20.9-15.2c-20.1-6-41.1,5.2-46.9,24.9c-5.8,19.7,5.7,40.5,25.8,46.5c20.1,6,41.1-5.2,46.9-24.9
		c2-6.9,2.2-13.2,0.3-19.7L191.5,67.7z M140,47.2c13.1-10.4,31.9-8.5,42.1,4.3l-47.4,37.6C124.6,76.4,127,57.6,140,47.2z"/>
	<path id="XMLID_229_" class="st0" d="M62.2,28h-1.6C49.7,28,41,36.7,41,47.5V110h21.2V28z"/>
	<ellipse id="XMLID_228_" class="st0" cx="88.1" cy="36.7" rx="10.3" ry="10.1"/>
	<rect id="XMLID_227_" x="41" y="69" class="st0" width="39.6" height="4.4"/>
</g>
</svg>
